<svg width="570" height="770" viewBox="0 0 570 770" version="1.1" xmlns="http://www.w3.org/2000/svg" xmlns:xlink="http://www.w3.org/1999/xlink" xmlns:figma="http://www.figma.com/figma/ns">
<title>Santa scorpion</title>
<desc>Created using Figma</desc>
<g id="Canvas" transform="translate(-227 -127)" figma:type="canvas">
<g id="Santa scorpion" style="mix-blend-mode:normal;" figma:type="frame">
<g id="Vector 2" style="mix-blend-mode:normal;" figma:type="vector">
<use xlink:href="#path0_stroke" transform="translate(232 132)" style="mix-blend-mode:normal;"/>
</g>
<g id="Ellipse" style="mix-blend-mode:normal;" figma:type="vector">
<use xlink:href="#path1_fill" transform="translate(455 252)" fill="#F6252D" style="mix-blend-mode:normal;"/>
<mask id="mask0_outline_ins">
<use xlink:href="#path1_fill" fill="white" transform="translate(455 252)"/>
</mask>
<g mask="url(#mask0_outline_ins)">
<use xlink:href="#path2_stroke_2x" transform="translate(455 252)" fill="#F6252D" style="mix-blend-mode:normal;"/>
</g>
</g>
<g id="Vector" style="mix-blend-mode:normal;" figma:type="vector">
<use xlink:href="#path3_fill" transform="matrix(1 -2.44929e-16 2.44929e-16 1 450 345)" fill="#FFFFFF" style="mix-blend-mode:normal;"/>
<use xlink:href="#path4_stroke" transform="matrix(1 -2.44929e-16 2.44929e-16 1 450 345)" fill="#FFFFFF" style="mix-blend-mode:normal;"/>
</g>
<g id="Ellipse 2" style="mix-blend-mode:normal;" figma:type="ellipse">
<use xlink:href="#path5_fill" transform="translate(555 237)" fill="#FFFFFF" style="mix-blend-mode:normal;"/>
</g>
</g>
</g>
<defs>
<path id="path0_stroke" d="M 280 170L 283.536 166.464C 281.583 164.512 278.417 164.512 276.464 166.464L 280 170ZM 280 760L 275.107 761.03C 275.594 763.344 277.636 765 280 765C 282.364 765 284.406 763.344 284.893 761.03L 280 760ZM 490 280L 490 285C 491.816 285 493.489 284.016 494.371 282.428L 490 280ZM 540 190L 544.371 192.428C 545.154 191.018 545.209 189.317 544.519 187.86L 540 190ZM 450 0L 454.519 -2.14043C 453.557 -4.17014 451.36 -5.30974 449.147 -4.92677C 446.934 -4.54381 445.248 -2.73227 445.025 -0.497519L 450 0ZM 509.975 370L 513.177 373.84C 513.832 373.295 514.336 372.591 514.642 371.796L 509.975 370ZM 560 240L 564.666 241.796C 565.558 239.477 564.613 236.856 562.448 235.64C 560.282 234.424 557.551 234.983 556.037 236.951L 560 240ZM 450 420L 451.437 424.789C 452.083 424.595 452.683 424.273 453.202 423.84L 450 420ZM 470 520L 471.581 524.743C 473.029 524.261 474.177 523.143 474.699 521.709L 470 520ZM 510 410L 514.699 411.709C 515.485 409.547 514.695 407.129 512.785 405.848C 510.876 404.567 508.338 404.753 506.637 406.3L 510 410ZM 400 510L 399.178 514.932C 399.216 514.938 399.255 514.944 399.293 514.95L 400 510ZM 70 280L 65.6292 282.428C 66.5111 284.016 68.1842 285 70 285L 70 280ZM 20 190L 15.4813 187.86C 14.7909 189.317 14.8459 191.018 15.6292 192.428L 20 190ZM 110 0L 114.975 -0.497519C 114.752 -2.73227 113.066 -4.54381 110.853 -4.92677C 108.64 -5.30974 106.443 -4.17014 105.481 -2.14043L 110 0ZM 50.0247 370L 45.3582 371.796C 45.6643 372.591 46.1685 373.295 46.823 373.84L 50.0247 370ZM 0 240L 3.96312 236.951C 2.44865 234.983 -0.281519 234.424 -2.4475 235.64C -4.61349 236.856 -5.55849 239.477 -4.66643 241.796L 0 240ZM 110 420L 106.798 423.84C 107.317 424.273 107.917 424.595 108.563 424.789L 110 420ZM 90 520L 85.301 521.709C 85.8226 523.143 86.9709 524.261 88.4189 524.743L 90 520ZM 50 410L 53.3634 406.3C 51.6617 404.753 49.1243 404.567 47.2146 405.848C 45.3048 407.129 44.5151 409.547 45.301 411.709L 50 410ZM 160 510L 160.707 514.95C 160.745 514.944 160.784 514.938 160.822 514.932L 160 510ZM 385.273 278.372L 354.273 368.372L 363.727 371.628L 394.727 281.628L 385.273 278.372ZM 354.031 369.441L 345.031 449.441L 354.969 450.559L 363.969 370.559L 354.031 369.441ZM 345.097 449.019L 335.097 499.019L 344.903 500.981L 354.903 450.981L 345.097 449.019ZM 335.192 498.626L 315.192 568.626L 324.808 571.374L 344.808 501.374L 335.192 498.626ZM 315.107 568.97L 275.107 758.97L 284.893 761.03L 324.893 571.03L 315.107 568.97ZM 394.472 282.236L 434.472 202.236L 425.528 197.764L 385.528 277.764L 394.472 282.236ZM 276.464 173.536L 338.464 235.536L 345.536 228.464L 283.536 166.464L 276.464 173.536ZM 338.464 235.536L 386.464 283.536L 393.536 276.464L 345.536 228.464L 338.464 235.536ZM 428.291 195.301L 340.291 227.301L 343.709 236.699L 431.709 204.699L 428.291 195.301ZM 426 203L 486 283L 494 277L 434 197L 426 203ZM 490 275L 390 275L 390 285L 490 285L 490 275ZM 494.371 282.428L 544.371 192.428L 535.629 187.572L 485.629 277.572L 494.371 282.428ZM 544.519 187.86L 454.519 -2.14043L 445.481 2.14043L 535.481 192.14L 544.519 187.86ZM 445.025 -0.497519L 425.025 199.502L 434.975 200.498L 454.975 0.497519L 445.025 -0.497519ZM 445.05 0.707107L 485.05 280.707L 494.95 279.293L 454.95 -0.707107L 445.05 0.707107ZM 514.642 371.796L 564.666 241.796L 555.334 238.204L 505.309 368.204L 514.642 371.796ZM 359 375L 460 375L 460 365L 359 365L 359 375ZM 460 375L 509.975 375L 509.975 365L 460 365L 460 375ZM 556.037 236.951L 456.037 366.951L 463.963 373.049L 563.963 243.049L 556.037 236.951ZM 351.437 454.789L 451.437 424.789L 448.563 415.211L 348.563 445.211L 351.437 454.789ZM 453.202 423.84L 513.177 373.84L 506.774 366.16L 446.798 416.16L 453.202 423.84ZM 321.581 574.743L 471.581 524.743L 468.419 515.257L 318.419 565.257L 321.581 574.743ZM 474.699 521.709L 514.699 411.709L 505.301 408.291L 465.301 518.291L 474.699 521.709ZM 506.637 406.3L 396.637 506.3L 403.363 513.7L 513.363 413.7L 506.637 406.3ZM 400.822 505.068L 340.822 495.068L 339.178 504.932L 399.178 514.932L 400.822 505.068ZM 399.293 514.95L 469.293 524.95L 470.707 515.05L 400.707 505.05L 399.293 514.95ZM 165.273 281.628L 196.273 371.628L 205.727 368.372L 174.727 278.372L 165.273 281.628ZM 196.031 370.559L 205.031 450.559L 214.969 449.441L 205.969 369.441L 196.031 370.559ZM 205.097 450.981L 215.097 500.981L 224.903 499.019L 214.903 449.019L 205.097 450.981ZM 215.192 501.374L 235.192 571.374L 244.808 568.626L 224.808 498.626L 215.192 501.374ZM 235.107 571.03L 275.107 761.03L 284.893 758.97L 244.893 568.97L 235.107 571.03ZM 174.472 277.764L 134.472 197.764L 125.528 202.236L 165.528 282.236L 174.472 277.764ZM 276.464 166.464L 214.464 228.464L 221.536 235.536L 283.536 173.536L 276.464 166.464ZM 214.464 228.464L 166.464 276.464L 173.536 283.536L 221.536 235.536L 214.464 228.464ZM 128.291 204.699L 216.291 236.699L 219.709 227.301L 131.709 195.301L 128.291 204.699ZM 126 197L 66 277L 74 283L 134 203L 126 197ZM 70 285L 170 285L 170 275L 70 275L 70 285ZM 74.3708 277.572L 24.3708 187.572L 15.6292 192.428L 65.6292 282.428L 74.3708 277.572ZM 24.5187 192.14L 114.519 2.14043L 105.481 -2.14043L 15.4813 187.86L 24.5187 192.14ZM 105.025 0.497519L 125.025 200.498L 134.975 199.502L 114.975 -0.497519L 105.025 0.497519ZM 105.05 -0.707107L 65.0503 279.293L 74.9497 280.707L 114.95 0.707107L 105.05 -0.707107ZM 54.6911 368.204L 4.66643 238.204L -4.66643 241.796L 45.3582 371.796L 54.6911 368.204ZM 201 365L 100 365L 100 375L 201 375L 201 365ZM 100 365L 50.0247 365L 50.0247 375L 100 375L 100 365ZM -3.96312 243.049L 96.0369 373.049L 103.963 366.951L 3.96312 236.951L -3.96312 243.049ZM 211.437 445.211L 111.437 415.211L 108.563 424.789L 208.563 454.789L 211.437 445.211ZM 113.202 416.16L 53.2264 366.16L 46.823 373.84L 106.798 423.84L 113.202 416.16ZM 241.581 565.257L 91.5811 515.257L 88.4189 524.743L 238.419 574.743L 241.581 565.257ZM 94.699 518.291L 54.699 408.291L 45.301 411.709L 85.301 521.709L 94.699 518.291ZM 46.6366 413.7L 156.637 513.7L 163.363 506.3L 53.3634 406.3L 46.6366 413.7ZM 160.822 514.932L 220.822 504.932L 219.178 495.068L 159.178 505.068L 160.822 514.932ZM 159.293 505.05L 89.2929 515.05L 90.7071 524.95L 160.707 514.95L 159.293 505.05ZM 201 375L 359 375L 359 365L 201 365L 201 375ZM 350 445L 210 445L 210 455L 350 455L 350 445ZM 220 505L 340 505L 340 495L 220 495L 220 505ZM 320 565L 240 565L 240 575L 320 575L 320 565Z"/>
<path id="path1_fill" d="M 105.991 0.212772C 41.9908 3.64328 0 48.1276 0 102.5L 114 102.5L 114 8C 114 3.58172 110.403 -0.0237141 105.991 0.212772Z"/>
<path id="path2_stroke_2x" d="M 0 102.5L -10 102.5C -10 108.023 -5.52285 112.5 2.22045e-15 112.5L 0 102.5ZM 105.991 0.212772L 105.456 -9.77289L 105.456 -9.77289L 105.991 0.212772ZM 114 102.5L 114 112.5C 119.523 112.5 124 108.023 124 102.5L 114 102.5ZM 10 102.5C 10 54.0004 47.2576 13.3753 106.526 10.1984L 105.456 -9.77289C 36.7239 -6.08876 -10 42.2548 -10 102.5L 10 102.5ZM 0 112.5L 114 112.5L 114 92.5L 0 92.5L 0 112.5ZM 124 102.5L 124 8L 104 8L 104 102.5L 124 102.5ZM 106.526 10.1984C 104.877 10.2868 104 8.97284 104 8L 124 8C 124 -1.80939 115.929 -10.3342 105.456 -9.77289L 106.526 10.1984Z"/>
<path id="path3_fill" d="M 124 19L 0 19L 0 0L 124 0L 124 19Z"/>
<path id="path4_stroke" d="M 0 19L -5 19C -5 21.7614 -2.76142 24 1.11022e-15 24L 0 19ZM 124 19L 124 24C 126.761 24 129 21.7614 129 19L 124 19ZM 0 0L 0 -5C -2.76142 -5 -5 -2.76142 -5 1.11022e-15L 0 0ZM 124 0L 129 0C 129 -2.76142 126.761 -5 124 -5L 124 0ZM 0 24L 124 24L 124 14L 0 14L 0 24ZM 5 19L 5 0L -5 0L -5 19L 5 19ZM 0 5L 124 5L 124 -5L 0 -5L 0 5ZM 119 0L 119 19L 129 19L 129 0L 119 0Z"/>
<path id="path5_fill" d="M 30 15C 30 23.2843 23.2843 30 15 30C 6.71573 30 0 23.2843 0 15C 0 6.71573 6.71573 0 15 0C 23.2843 0 30 6.71573 30 15Z"/>
</defs>
</svg>
