<?xml version="1.0" standalone="no"?>
<!-- Generator: Gravit.io -->
<svg xmlns="http://www.w3.org/2000/svg" xmlns:xlink="http://www.w3.org/1999/xlink" style="isolation:isolate" width="1080" height="1080">
  <path d=" M 54 40 L 366 40 C 368.2222789694529 40 370 41.777721030547184 370 44 L 370 44 L 370 44 L 370 176 C 370 178.2222789694527 368.22227896945276 180 366 180 L 366 180 L 366 180 L 54 180 C 51.77772103054722 180 50 178.22227896945284 50 176 L 50 176 L 50 176 L 50 44 C 50 41.77772103054723 51.77772103054723 40 54 40 L 54 40 L 54 40 Z  M 56.01909410729 42.00835367194 L 364.01909410729 42.00835367194 C 366.2413730767428 42.00835367194023 368.01909410729195 43.78607470248604 368.01909410729 46.00835367194 L 368.01909410729 46.00835367194 L 368.01909410729 46.00835367194 L 368.01909410729 174.00835367194 C 368.01909410729195 176.2306326413939 366.24137307674295 178.00835367194023 364.01909410729 178.00835367194 L 364.01909410729 178.00835367194 L 364.01909410729 178.00835367194 L 56.01909410729 178.00835367194 C 53.796815137837264 178.00835367194023 52.01909410729196 176.2306326413916 52.01909410729 174.00835367194 L 52.01909410729 174.00835367194 L 52.01909410729 174.00835367194 L 52.01909410729 46.00835367194 C 52.01909410729196 43.78607470248844 53.79681513783755 42.00835367194023 56.01909410729 42.00835367194 L 56.01909410729 42.00835367194 L 56.01909410729 42.00835367194 Z  M 60 50.00000000000001 L 180 50.00000000000001 L 180 170 L 60 170 L 60 50.00000000000001 Z  M 190 50 L 330 50 L 330 70 L 190 70 L 190 50 Z  M 190 80 L 340 80 L 340 90 L 190 90 L 190 80 Z  M 190 100 L 330 100 L 330 110 L 190 110 L 190 100 Z  M 190.00000000000006 119.99999999999999 L 340.00000000000006 119.99999999999999 L 340.00000000000006 129.99999999999997 L 190.00000000000006 129.99999999999997 L 190.00000000000006 119.99999999999999 Z  M 190.00000000000006 139.99999999999997 L 310.00000000000006 139.99999999999997 L 310.00000000000006 149.99999999999997 L 190.00000000000006 149.99999999999997 L 190.00000000000006 139.99999999999997 Z  M 190.0000000000001 159.99999999999994 L 320.0000000000001 159.99999999999994 L 320.0000000000001 169.99999999999994 L 190.0000000000001 169.99999999999994 L 190.0000000000001 159.99999999999994 Z  M 724 500 L 1036 500 C 1038.2222789694529 500 1040 501.7777210305472 1040 504 L 1040 504 L 1040 504 L 1040 636 C 1040 638.2222789694534 1038.2222789694536 640 1036 640 L 1036 640 L 1036 640 L 724 640 C 721.7777210305468 640 720 638.2222789694531 720 636 L 720 636 L 720 636 L 720 504 C 720 501.777721030547 721.777721030547 500 724 500 L 724 500 L 724 500 Z  M 726.01909410729 502.00835367194 L 1034.0190941072901 502.00835367194 C 1036.241373076743 502.0083536719402 1038.019094107292 503.78607470248585 1038.0190941072901 506.00835367194 L 1038.0190941072901 506.00835367194 L 1038.0190941072901 506.00835367194 L 1038.0190941072901 634.00835367194 C 1038.019094107292 636.2306326413942 1036.2413730767437 638.0083536719402 1034.0190941072901 638.00835367194 L 1034.0190941072901 638.00835367194 L 1034.0190941072901 638.00835367194 L 726.01909410729 638.00835367194 C 723.7968151378377 638.0083536719402 722.019094107292 636.2306326413917 722.01909410729 634.00835367194 L 722.01909410729 634.00835367194 L 722.01909410729 634.00835367194 L 722.01909410729 506.00835367194 C 722.019094107292 503.7860747024881 723.7968151378374 502.0083536719402 726.01909410729 502.00835367194 L 726.01909410729 502.00835367194 L 726.01909410729 502.00835367194 Z  M 730 510 L 850 510 L 850 630 L 730 630 L 730 510 Z  M 860 510 L 1000 510 L 1000 530 L 860 530 L 860 510 Z  M 860 540 L 1010 540 L 1010 550 L 860 550 L 860 540 Z  M 860 560 L 1000 560 L 1000 570 L 860 570 L 860 560 Z  M 860 580 L 1010 580 L 1010 590 L 860 590 L 860 580 Z  M 860 600 L 980 600 L 980 610 L 860 610 L 860 600 Z  M 860.0000000000001 620 L 990.0000000000001 620 L 990.0000000000001 630 L 860.0000000000001 630 L 860.0000000000001 620 Z  M 54.3523821559329 380 L 365.647617844067 380 C 368.00760042538025 380 369.9999999999999 381.81658992118844 369.9999999999999 384.21637021356 L 369.9999999999999 384.21637021356 L 369.9999999999999 384.21637021356 L 369.9999999999999 815.78362978644 C 369.9999999999999 818.1834100788116 368.0076004253802 820 365.647617844067 820 L 365.647617844067 820 L 365.647617844067 820 L 54.3523821559329 820 C 51.992399574619675 820 49.99999999999994 818.1834100788117 49.99999999999994 815.78362978644 L 49.99999999999994 815.78362978644 L 49.99999999999994 815.78362978644 L 49.99999999999994 384.21637021356 C 49.99999999999994 381.8165899211885 51.99239957461966 380 54.3523821559329 380 L 54.3523821559329 380 L 54.3523821559329 380 Z  M 56.41689828496516 382 L 363.5831017150348 382 C 365.9430842963478 382 367.9354838709677 383.81658992118827 367.9354838709677 386.21637021356 L 367.9354838709677 386.21637021356 L 367.9354838709677 386.21637021356 L 367.9354838709677 813.78362978644 C 367.9354838709677 816.1834100788116 365.9430842963481 818 363.5831017150348 818 L 363.5831017150348 818 L 363.5831017150348 818 L 56.41689828496516 818 C 54.05691570365187 818 52.0645161290322 816.1834100788119 52.0645161290322 813.78362978644 L 52.0645161290322 813.78362978644 L 52.0645161290322 813.78362978644 L 52.0645161290322 386.21637021356 C 52.0645161290322 383.81658992118827 54.05691570365192 382 56.41689828496516 382 L 56.41689828496516 382 L 56.41689828496516 382 Z  M 56.06451612903214 382 L 363.9354838709677 382 C 366.1577628404204 382 367.9354838709677 383.7777210305472 367.9354838709677 386 L 367.9354838709677 386 L 367.9354838709677 386 L 367.9354838709677 692 L 52.06451612903214 692 L 52.06451612903214 386 C 52.06451612903214 383.77772103054735 53.8422371595794 382 56.06451612903214 382 L 56.06451612903214 382 L 56.06451612903214 382 Z  M 60.32258064516121 700 L 277.0967741935483 700 L 277.0967741935483 720 L 60.32258064516121 720 L 60.32258064516121 700 Z  M 60.32258064516125 730 L 339.0322580645161 730 L 339.0322580645161 740 L 60.32258064516125 740 L 60.32258064516125 730 Z  M 60.32258064516128 750 L 328.7096774193548 750 L 328.7096774193548 760 L 60.32258064516128 760 L 60.32258064516128 750 Z  M 60.32258064516134 770 L 359.67741935483866 770 L 359.67741935483866 780 L 60.32258064516134 780 L 60.32258064516134 770 Z  M 60.32258064516131 790 L 328.70967741935476 790 L 328.70967741935476 800 L 60.32258064516131 800 L 60.32258064516131 790 Z  M 80.96774193548413 608.2910824388692 L 339.0322580645163 608.2910824388691 L 339.0322580645163 582.2910824388691 C 339.0322580645163 579.7991828813092 337.9279188528751 577.2640469720427 336.103171431919 575.5670318705537 L 336.103171431919 575.5670318705537 L 336.103171431919 575.5670318705537 L 277.4452156648556 521.0151330071847 C 275.7660526649023 519.4535114172281 273.1161295206588 519.2675820982099 271.2353527128331 520.5794239216683 L 271.2353527128331 520.5794239216683 L 271.2353527128331 520.5794239216683 L 234.78615266351142 546.0027409560702 C 232.90537585568563 547.3145827795286 230.25545271144205 547.1286534605102 228.57628971148895 545.5670318705537 L 228.57628971148895 545.5670318705537 L 228.57628971148895 545.5670318705537 L 159.16564577238248 481.0151330071847 C 157.53694235428327 479.50043882835246 155.019691193508 479.58443922748387 153.4955889432018 481.20434219066647 L 153.4955889432018 481.20434219066647 L 153.4955889432018 481.20434219066647 L 83.7087121320673 555.377822687072 C 81.98345000737253 557.2115298596048 80.9677419354839 559.7733430970185 80.96774193548391 562.2910824388692 L 80.96774193548391 562.2910824388692 L 80.96774193548391 562.2910824388692 L 80.96774193548413 608.2910824388692 Z  M 194.516129032258 475 C 194.516129032258 443.0908154659288 246.12903225806446 443.090815465929 246.12903225806446 475 C 246.12903225806446 506.45840747953923 194.516129032258 506.45840747953923 194.516129032258 475 L 194.516129032258 475 L 194.516129032258 475 L 194.516129032258 475 Z  M 724.3523821559329 670 L 1035.647617844067 670 C 1038.0076004253801 670 1040 671.8165899211883 1040 674.21637021356 L 1040 674.21637021356 L 1040 674.21637021356 L 1040 1105.78362978644 C 1040 1108.1834100788117 1038.0076004253801 1110 1035.647617844067 1110 L 1035.647617844067 1110 L 1035.647617844067 1110 L 724.3523821559329 1110 C 721.9923995746193 1110 720 1108.1834100788114 720 1105.78362978644 L 720 1105.78362978644 L 720 1105.78362978644 L 720 674.21637021356 C 720 671.8165899211888 721.99239957462 670 724.3523821559329 670 L 724.3523821559329 670 L 724.3523821559329 670 Z  M 726.4168982849651 672 L 1033.583101715035 672 C 1035.9430842963477 672 1037.9354838709678 673.8165899211888 1037.9354838709678 676.21637021356 L 1037.9354838709678 676.21637021356 L 1037.9354838709678 676.21637021356 L 1037.9354838709678 1103.78362978644 C 1037.9354838709678 1106.1834100788112 1035.9430842963475 1108 1033.583101715035 1108 L 1033.583101715035 1108 L 1033.583101715035 1108 L 726.4168982849651 1108 C 724.0569157036515 1108 722.0645161290322 1106.1834100788114 722.0645161290322 1103.78362978644 L 722.0645161290322 1103.78362978644 L 722.0645161290322 1103.78362978644 L 722.0645161290322 676.21637021356 C 722.0645161290322 673.8165899211883 724.0569157036516 672 726.4168982849651 672 L 726.4168982849651 672 L 726.4168982849651 672 Z  M 726.0645161290322 672 L 1033.9354838709678 672 C 1036.157762840421 672 1037.9354838709678 673.7777210305472 1037.9354838709678 676 L 1037.9354838709678 676 L 1037.9354838709678 676 L 1037.9354838709678 982 L 722.0645161290322 982 L 722.0645161290322 676 C 722.0645161290322 673.777721030547 723.8422371595794 672 726.0645161290322 672 L 726.0645161290322 672 L 726.0645161290322 672 Z  M 730.3225806451612 990 L 947.0967741935483 990 L 947.0967741935483 1010 L 730.3225806451612 1010 L 730.3225806451612 990 Z  M 730.3225806451612 1020 L 1009.0322580645161 1020 L 1009.0322580645161 1030 L 730.3225806451612 1030 L 730.3225806451612 1020 Z  M 730.3225806451612 1040 L 998.7096774193549 1040 L 998.7096774193549 1050 L 730.3225806451612 1050 L 730.3225806451612 1040 Z  M 730.3225806451613 1060 L 1029.6774193548385 1060 L 1029.6774193548385 1070 L 730.3225806451613 1070 L 730.3225806451613 1060 Z  M 730.3225806451613 1080 L 998.7096774193548 1080 L 998.7096774193548 1090 L 730.3225806451613 1090 L 730.3225806451613 1080 Z  M 750.9677419354841 898.2910824388692 L 1009.0322580645163 898.2910824388691 L 1009.0322580645163 872.2910824388691 C 1009.0322580645163 869.7991828813093 1007.9279188528751 867.2640469720428 1006.103171431919 865.5670318705537 L 1006.103171431919 865.5670318705537 L 1006.103171431919 865.5670318705537 L 947.4452156648556 811.0151330071847 C 945.7660526649025 809.4535114172284 943.1161295206587 809.26758209821 941.2353527128331 810.5794239216683 L 941.2353527128331 810.5794239216683 L 941.2353527128331 810.5794239216683 L 904.7861526635114 836.0027409560702 C 902.9053758556857 837.3145827795286 900.2554527114421 837.1286534605102 898.5762897114889 835.5670318705537 L 898.5762897114889 835.5670318705537 L 898.5762897114889 835.5670318705537 L 829.1656457723825 771.0151330071848 C 827.5369423542834 769.5004388283525 825.0196911935082 769.5844392274838 823.4955889432018 771.2043421906665 L 823.4955889432018 771.2043421906665 L 823.4955889432018 771.2043421906665 L 753.7087121320673 845.377822687072 C 751.9834500073727 847.2115298596046 750.9677419354839 849.7733430970186 750.9677419354839 852.2910824388692 L 750.9677419354839 852.2910824388692 L 750.9677419354839 852.2910824388692 L 750.9677419354841 898.2910824388692 Z  M 864.516129032258 765 C 864.516129032258 733.0908154659288 916.1290322580644 733.0908154659288 916.1290322580644 765 C 916.1290322580644 796.4584074795393 864.516129032258 796.458407479539 864.516129032258 765 L 864.516129032258 765 L 864.516129032258 765 L 864.516129032258 765 Z  M 394.21637021356 40 L 695.78362978644 40 C 698.1261174996959 40 700 41.87388250030407 700 44.21637021356 L 700 44.21637021356 L 700 44.21637021356 L 700 475.78362978644 C 700 478.1261174996959 698.1261174996959 480 695.78362978644 480 L 695.78362978644 480 L 695.78362978644 480 L 394.21637021356 480 C 391.8738825003041 480 390 478.1261174996958 390 475.78362978644 L 390 475.78362978644 L 390 475.78362978644 L 390 44.21637021356 C 390 41.873882500304106 391.87388250030415 40 394.21637021356 40 L 394.21637021356 40 L 394.21637021356 40 Z  M 396.21637021356 42 L 693.78362978644 42 C 696.126117499696 42 698 43.87388250030406 698 46.21637021356 L 698 46.21637021356 L 698 46.21637021356 L 698 473.78362978644 C 698 476.12611749969585 696.1261174996959 478 693.78362978644 478 L 693.78362978644 478 L 693.78362978644 478 L 396.21637021356 478 C 393.8738825003042 478 392 476.12611749969585 392 473.78362978644 L 392 473.78362978644 L 392 473.78362978644 L 392 46.21637021356 C 392 43.87388250030411 393.8738825003041 42 396.21637021356 42 L 396.21637021356 42 L 396.21637021356 42 Z  M 395.99999999999994 42 L 694 42 C 696.2222789694532 42 698 43.777721030547106 698 46 L 698 46 L 698 46 L 698 352 L 391.99999999999994 352 L 391.99999999999994 46 C 391.99999999999994 43.777721030547255 393.77772103054724 42 395.99999999999994 42 L 395.99999999999994 42 L 395.99999999999994 42 Z  M 400 360 L 610 360 L 610 380 L 400 380 L 400 360 Z  M 400 390 L 670 390 L 670 400 L 400 400 L 400 390 Z  M 400 410 L 660 410 L 660 420 L 400 420 L 400 410 Z  M 400 429.99999999999994 L 690 429.99999999999994 L 690 439.99999999999994 L 400 439.99999999999994 L 400 429.99999999999994 Z  M 400 449.9999999999999 L 660 449.9999999999999 L 660 459.9999999999999 L 400 459.9999999999999 L 400 449.9999999999999 Z  M 420.00000000000006 268.29108243886924 L 670 268.2910824388691 L 670 242.29108243886915 C 670 239.79301102300607 668.9165277623096 237.2509490906863 667.1144507158762 235.5209551261103 L 667.1144507158762 235.5209551261103 L 667.1144507158762 235.5209551261103 L 610.3855492841238 181.06120975162807 C 608.7388899731591 179.48041681310198 606.1062941097138 179.29455067987533 604.253862634194 180.62830134224953 L 604.253862634194 180.62830134224953 L 604.253862634194 180.62830134224953 L 569.0794706991395 205.9538635354889 C 567.2270392236197 207.28761419786315 564.5944433601742 207.10174806463624 562.9477840492096 205.52095512611035 L 562.9477840492096 205.52095512611035 L 562.9477840492096 205.52095512611035 L 495.8022159507906 141.06120975162807 C 494.20521248563614 139.5280864250798 491.7134248595766 139.61121059293387 490.22214584795483 141.24735670854176 L 490.22214584795483 141.24735670854176 L 490.22214584795483 141.24735670854176 L 422.6945208187119 215.33480816919666 C 420.99441707090705 217.20006485250255 419.99999999999994 219.76728861846362 419.99999999999994 222.2910824388692 L 419.99999999999994 222.2910824388692 L 419.99999999999994 222.2910824388692 L 420.00000000000006 268.29108243886924 Z  M 530 135 C 530 103.31530600799299 580 103.31530600799306 580 135 C 580 166.07964985090558 530 166.0796498509055 530 135 L 530 135 L 530 135 L 530 135 Z  M 721.48 72 L 1037.52 72 C 1039.4514924232703 72 1041 70.45149242327003 1041 68.51999999999998 L 1041 68.51999999999998 L 1041 68.51999999999998 L 1041 42.48000000000002 C 1041 40.548507576729996 1039.4514924232694 39 1037.52 39 L 1037.52 39 L 1037.52 39 L 721.48 39 C 719.5485075767298 39 718 40.54850757673002 718 42.48000000000002 L 718 42.48000000000002 L 718 42.48000000000002 L 718 68.51999999999998 C 718 70.45149242327 719.5485075767299 72 721.48 72 L 721.48 72 L 721.48 72 Z  M 721.48 70 L 1037.52 70 C 1038.344257332776 70 1039 69.34425733277577 1039 68.51999999999998 L 1039 68.51999999999998 L 1039 68.51999999999998 L 1039 42.48000000000002 C 1039 41.65574266722412 1038.344257332776 41 1037.52 41 L 1037.52 41 L 1037.52 41 L 721.48 41 C 720.6557426672242 41 720 41.65574266722405 720 42.48000000000002 L 720 42.48000000000002 L 720 42.48000000000002 L 720 68.51999999999998 C 720 69.34425733277597 720.6557426672241 70 721.48 70 L 721.48 70 L 721.48 70 Z  M 720.7 112 L 868.3 112 C 869.8015437147969 112 871 110.80154371479715 871 109.30000000000001 L 871 109.30000000000001 L 871 109.30000000000001 L 871 81.69999999999999 C 871 80.19845628520295 869.8015437147969 79 868.3 79 L 868.3 79 L 868.3 79 L 720.7 79 C 719.1984562852031 79 718 80.19845628520295 718 81.69999999999999 L 718 81.69999999999999 L 718 81.69999999999999 L 718 109.30000000000001 C 718 110.80154371479706 719.1984562852031 112 720.7 112 L 720.7 112 L 720.7 112 Z  M 720.7 110 L 868.3 110 C 868.7135867600451 110 869 109.71358676004581 869 109.30000000000001 L 869 109.30000000000001 L 869 109.30000000000001 L 869 81.69999999999999 C 869 81.28641323995413 868.7135867600458 81 868.3 81 L 868.3 81 L 868.3 81 L 720.7 81 C 720.286413239954 81 720 81.28641323995406 720 81.69999999999999 L 720 81.69999999999999 L 720 81.69999999999999 L 720 109.30000000000001 C 720 109.71358676004583 720.2864132399544 110 720.7 110 L 720.7 110 L 720.7 110 Z  M 881.8 112 L 1038.2 112 C 1039.752681652705 112 1041 110.75268165270474 1041 109.19999999999999 L 1041 109.19999999999999 L 1041 109.19999999999999 L 1041 81.80000000000001 C 1041 80.24731834729523 1039.7526816527047 79 1038.2 79 L 1038.2 79 L 1038.2 79 L 881.8 79 C 880.2473183472954 79 879 80.24731834729549 879 81.80000000000001 L 879 81.80000000000001 L 879 81.80000000000001 L 879 109.19999999999999 C 879 110.75268165270467 880.2473183472953 112 881.8 112 L 881.8 112 L 881.8 112 Z  M 881.8 110 L 1038.2 110 C 1038.6639960267307 110 1039 109.66399602673093 1039 109.19999999999999 L 1039 109.19999999999999 L 1039 109.19999999999999 L 1039 81.80000000000001 C 1039 81.33600397326903 1038.6639960267307 81 1038.2 81 L 1038.2 81 L 1038.2 81 L 881.8 81 C 881.3360039732684 81 881 81.336003973269 881 81.80000000000001 L 881 81.80000000000001 L 881 81.80000000000001 L 881 109.19999999999999 C 881 109.6639960267309 881.3360039732689 110 881.8 110 L 881.8 110 L 881.8 110 Z  M 724 119 L 1036 119 C 1038.7418883981652 119 1041 121.25811160183471 1041 124 L 1041 124 L 1041 124 L 1041 146 C 1041 148.74188839816532 1038.7418883981657 151 1036 151 L 1036 151 L 1036 151 L 724 151 C 721.2581116018347 151 719 148.74188839816537 719 146 L 719 146 L 719 146 L 719 124 C 719 121.25811160183463 721.2581116018347 119 724 119 L 724 119 L 724 119 Z  M 724 121 L 1036 121 C 1037.664430621436 121 1039 122.33556937856365 1039 124 L 1039 124 L 1039 124 L 1039 146 C 1039 147.66443062143586 1037.6644306214353 149 1036 149 L 1036 149 L 1036 149 L 724 149 C 722.3355693785641 149 721 147.66443062143605 721 146 L 721 146 L 721 146 L 721 124 C 721 122.33556937856396 722.3355693785638 121 724 121 L 724 121 L 724 121 Z  M 730 50 L 830 50 L 830 60 L 730 60 L 730 50 Z  M 730 90 L 810 90 L 810 100 L 730 100 L 730 90 Z  M 890 90 L 980 90 L 980 100 L 890 100 L 890 90 Z  M 730 130 L 840 130 L 840 140 L 730 140 L 730 130 Z  M 850 130 L 930 130 L 930 140 L 850 140 L 850 130 Z  M 724 170 L 866 170 C 868.2222789694529 170 870 171.77772103054707 870 174 L 870 174 L 870 174 L 870 196 C 870 198.22227896945273 868.2222789694526 200 866 200 L 866 200 L 866 200 L 724 200 C 721.7777210305472 200 720 198.22227896945265 720 196 L 720 196 L 720 196 L 720 174 C 720 171.77772103054733 721.7777210305475 170 724 170 L 724 170 L 724 170 Z  M 740 180 L 850 180 L 850 190 L 740 190 L 740 180 Z  M 892 179 L 898 179 C 899.6644306214364 179 901 180.3355693785639 901 182 L 901 182 L 901 182 L 901 188 C 901 189.66443062143608 899.6644306214363 191 898 191 L 898 191 L 898 191 L 892 191 C 890.3355693785637 191 889 189.6644306214361 889 188 L 889 188 L 889 188 L 889 182 C 889 180.3355693785639 890.3355693785641 179 892 179 L 892 179 L 892 179 Z  M 892 181 L 898 181 C 898.586257308943 181 899 181.4137426910573 899 182 L 899 182 L 899 182 L 899 188 C 899 188.58625730894275 898.5862573089425 189 898 189 L 898 189 L 898 189 L 892 189 C 891.4137426910575 189 891 188.5862573089427 891 188 L 891 188 L 891 188 L 891 182 C 891 181.41374269105728 891.4137426910572 181 892 181 L 892 181 L 892 181 Z  M 910 180 L 1020 180 L 1020 190 L 910 190 L 910 180 Z  M 401.3399380804954 750.671826625387 L 704.6600619195046 750.671826625387 C 706.5138162576277 750.671826625387 708 749.1856428830146 708 747.3318885448916 L 708 747.3318885448916 L 708 747.3318885448916 L 708 722.3399380804954 C 708 720.4861837423722 706.5138162576277 719 704.6600619195046 719 L 704.6600619195046 719 L 704.6600619195046 719 L 401.3399380804954 719 C 399.48618374237225 719 397.99999999999994 720.486183742372 397.99999999999994 722.3399380804954 L 397.99999999999994 722.3399380804954 L 397.99999999999994 722.3399380804954 L 397.99999999999994 747.3318885448916 C 397.99999999999994 749.1856428830146 399.4861837423724 750.671826625387 401.3399380804954 750.671826625387 L 401.3399380804954 750.671826625387 L 401.3399380804954 750.671826625387 Z  M 401.3399380804954 748.7523219814241 L 704.6600619195046 748.7523219814241 C 705.4511448085467 748.7523219814241 706.0804953560371 748.1229714339338 706.0804953560371 747.3318885448916 L 706.0804953560371 747.3318885448916 L 706.0804953560371 747.3318885448916 L 706.0804953560371 722.3399380804954 C 706.0804953560371 721.5488551914534 705.4511448085467 720.9195046439629 704.6600619195046 720.9195046439629 L 704.6600619195046 720.9195046439629 L 704.6600619195046 720.9195046439629 L 401.3399380804954 720.9195046439629 C 400.5488551914533 720.9195046439629 399.91950464396285 721.5488551914531 399.91950464396285 722.3399380804954 L 399.91950464396285 722.3399380804954 L 399.91950464396285 722.3399380804954 L 399.91950464396285 747.3318885448916 C 399.91950464396285 748.1229714339332 400.5488551914532 748.7523219814241 401.3399380804954 748.7523219814241 L 401.3399380804954 748.7523219814241 L 401.3399380804954 748.7523219814241 Z  M 400.59133126934984 789.0619195046439 L 542.250773993808 789.0619195046439 C 543.6918840606412 789.0619195046439 544.8421052631579 787.9116983021272 544.8421052631579 786.4705882352941 L 544.8421052631579 786.4705882352941 L 544.8421052631579 786.4705882352941 L 544.8421052631579 759.9814241486067 C 544.8421052631579 758.5403140817737 543.6918840606413 757.3900928792569 542.250773993808 757.3900928792569 L 542.250773993808 757.3900928792569 L 542.250773993808 757.3900928792569 L 400.59133126934984 757.3900928792569 C 399.1502212025168 757.3900928792569 397.99999999999994 758.5403140817735 397.99999999999994 759.9814241486067 L 397.99999999999994 759.9814241486067 L 397.99999999999994 759.9814241486067 L 397.99999999999994 786.4705882352941 C 397.99999999999994 787.9116983021273 399.1502212025167 789.0619195046439 400.59133126934984 789.0619195046439 L 400.59133126934984 789.0619195046439 L 400.59133126934984 789.0619195046439 Z  M 400.59133126934984 787.1424148606811 L 542.250773993808 787.1424148606811 C 542.6477148471031 787.1424148606811 542.922600619195 786.8675290885889 542.922600619195 786.4705882352941 L 542.922600619195 786.4705882352941 L 542.922600619195 786.4705882352941 L 542.922600619195 759.9814241486067 C 542.922600619195 759.584483295312 542.6477148471026 759.3095975232197 542.250773993808 759.3095975232197 L 542.250773993808 759.3095975232197 L 542.250773993808 759.3095975232197 L 400.59133126934984 759.3095975232197 C 400.19439041605494 759.3095975232197 399.91950464396285 759.584483295312 399.91950464396285 759.9814241486067 L 399.91950464396285 759.9814241486067 L 399.91950464396285 759.9814241486067 L 399.91950464396285 786.4705882352941 C 399.91950464396285 786.8675290885894 400.19439041605517 787.1424148606811 400.59133126934984 787.1424148606811 L 400.59133126934984 787.1424148606811 L 400.59133126934984 787.1424148606811 Z  M 555.2074303405573 789.0619195046439 L 705.3126934984521 789.0619195046439 C 706.8028833199331 789.0619195046439 708 787.864802824577 708 786.3746130030959 L 708 786.3746130030959 L 708 786.3746130030959 L 708 760.077399380805 C 708 758.587209559324 706.8028833199337 757.3900928792569 705.3126934984521 757.3900928792569 L 705.3126934984521 757.3900928792569 L 705.3126934984521 757.3900928792569 L 555.2074303405573 757.3900928792569 C 553.7172405190759 757.3900928792569 552.5201238390093 758.5872095593237 552.5201238390093 760.077399380805 L 552.5201238390093 760.077399380805 L 552.5201238390093 760.077399380805 L 552.5201238390093 786.3746130030959 C 552.5201238390093 787.8648028245773 553.717240519076 789.0619195046439 555.2074303405573 789.0619195046439 L 555.2074303405573 789.0619195046439 L 555.2074303405573 789.0619195046439 Z  M 555.2074303405573 787.1424148606811 L 705.3126934984521 787.1424148606811 C 705.758014762497 787.1424148606811 706.0804953560371 786.8199342671408 706.0804953560371 786.3746130030959 L 706.0804953560371 786.3746130030959 L 706.0804953560371 786.3746130030959 L 706.0804953560371 760.077399380805 C 706.0804953560371 759.6320781167601 705.7580147624973 759.3095975232197 705.3126934984521 759.3095975232197 L 705.3126934984521 759.3095975232197 L 705.3126934984521 759.3095975232197 L 555.2074303405573 759.3095975232197 C 554.7621090765123 759.3095975232197 554.4396284829722 759.6320781167601 554.4396284829722 760.077399380805 L 554.4396284829722 760.077399380805 L 554.4396284829722 760.077399380805 L 554.4396284829722 786.3746130030959 C 554.4396284829722 786.8199342671415 554.762109076512 787.1424148606811 555.2074303405573 787.1424148606811 L 555.2074303405573 787.1424148606811 L 555.2074303405573 787.1424148606811 Z  M 403.75851393188856 795.780185758514 L 703.2012383900928 795.780185758514 C 705.8513563318515 795.780185758514 708 797.9288294266628 708 800.5789473684212 L 708 800.5789473684212 L 708 800.5789473684212 L 708 821.6934984520125 C 708 824.343616393771 705.8513563318511 826.4922600619195 703.2012383900928 826.4922600619195 L 703.2012383900928 826.4922600619195 L 703.2012383900928 826.4922600619195 L 403.75851393188856 826.4922600619195 C 401.1083959901301 826.4922600619195 398.9597523219814 824.3436163937711 398.9597523219814 821.6934984520125 L 398.9597523219814 821.6934984520125 L 398.9597523219814 821.6934984520125 L 398.9597523219814 800.5789473684212 C 398.9597523219814 797.9288294266626 401.1083959901301 795.780185758514 403.75851393188856 795.780185758514 L 403.75851393188856 795.780185758514 L 403.75851393188856 795.780185758514 Z  M 403.75851393188856 797.6996904024768 L 703.2012383900928 797.6996904024768 C 704.7986795437929 797.6996904024768 706.0804953560371 798.9815062147211 706.0804953560371 800.5789473684212 L 706.0804953560371 800.5789473684212 L 706.0804953560371 800.5789473684212 L 706.0804953560371 821.6934984520125 C 706.0804953560371 823.2909396057128 704.7986795437931 824.5727554179567 703.2012383900928 824.5727554179567 L 703.2012383900928 824.5727554179567 L 703.2012383900928 824.5727554179567 L 403.75851393188856 824.5727554179567 C 402.1610727781885 824.5727554179567 400.8792569659443 823.2909396057128 400.8792569659443 821.6934984520125 L 400.8792569659443 821.6934984520125 L 400.8792569659443 821.6934984520125 L 400.8792569659443 800.5789473684212 C 400.8792569659443 798.9815062147208 402.1610727781882 797.6996904024768 403.75851393188856 797.6996904024768 L 403.75851393188856 797.6996904024768 L 403.75851393188856 797.6996904024768 Z  M 409.5170278637771 729.5572755417957 L 505.4922600619195 729.5572755417957 L 505.4922600619195 739.15479876161 L 409.5170278637771 739.15479876161 L 409.5170278637771 729.5572755417957 Z  M 409.5170278637771 767.9473684210526 L 486.297213622291 767.9473684210526 L 486.297213622291 777.5448916408669 L 409.5170278637771 777.5448916408669 L 409.5170278637771 767.9473684210526 Z  M 563.0773993808049 767.9473684210526 L 649.4551083591331 767.9473684210526 L 649.4551083591331 777.5448916408669 L 563.0773993808049 777.5448916408669 L 563.0773993808049 767.9473684210526 Z  M 409.5170278637771 806.3374613003095 L 515.0897832817337 806.3374613003095 L 515.0897832817337 815.9349845201239 L 409.5170278637771 815.9349845201239 L 409.5170278637771 806.3374613003095 Z  M 524.687306501548 806.3374613003095 L 601.4674922600619 806.3374613003095 L 601.4674922600619 815.9349845201239 L 524.687306501548 815.9349845201239 L 524.687306501548 806.3374613003095 Z  M 403.9195046439629 844.7275541795666 L 539.8823529411765 844.7275541795666 C 542.1046319106292 844.7275541795666 543.8823529411765 846.5052752101135 543.8823529411765 848.7275541795666 L 543.8823529411765 848.7275541795666 L 543.8823529411765 848.7275541795666 L 543.8823529411765 869.5201238390093 C 543.8823529411765 871.7424028084622 542.1046319106295 873.5201238390093 539.8823529411765 873.5201238390093 L 539.8823529411765 873.5201238390093 L 539.8823529411765 873.5201238390093 L 403.9195046439629 873.5201238390093 C 401.69722567451015 873.5201238390093 399.9195046439629 871.742402808462 399.9195046439629 869.5201238390093 L 399.9195046439629 869.5201238390093 L 399.9195046439629 869.5201238390093 L 399.9195046439629 848.7275541795666 C 399.9195046439629 846.5052752101136 401.69722567451 844.7275541795666 403.9195046439629 844.7275541795666 L 403.9195046439629 844.7275541795666 L 403.9195046439629 844.7275541795666 Z  M 419.1145510835914 854.3250773993808 L 524.687306501548 854.3250773993808 L 524.687306501548 863.9226006191951 L 419.1145510835914 863.9226006191951 L 419.1145510835914 854.3250773993808 Z  M 564.9969040247679 853.3653250773995 L 570.7554179566564 853.3653250773995 C 572.3528591103566 853.3653250773995 573.6346749226007 854.6471408896437 573.6346749226007 856.2445820433437 L 573.6346749226007 856.2445820433437 L 573.6346749226007 856.2445820433437 L 573.6346749226007 862.0030959752322 C 573.6346749226007 863.6005371289323 572.3528591103565 864.8823529411766 570.7554179566564 864.8823529411766 L 570.7554179566564 864.8823529411766 L 570.7554179566564 864.8823529411766 L 564.9969040247679 864.8823529411766 C 563.3994628710674 864.8823529411766 562.1176470588234 863.6005371289323 562.1176470588234 862.0030959752322 L 562.1176470588234 862.0030959752322 L 562.1176470588234 862.0030959752322 L 562.1176470588234 856.2445820433437 C 562.1176470588234 854.6471408896433 563.3994628710675 853.3653250773995 564.9969040247679 853.3653250773995 L 564.9969040247679 853.3653250773995 L 564.9969040247679 853.3653250773995 Z  M 564.9969040247679 855.2848297213623 L 570.7554179566564 855.2848297213623 C 571.3180797701924 855.2848297213623 571.7151702786377 855.6819202298067 571.7151702786377 856.2445820433437 L 571.7151702786377 856.2445820433437 L 571.7151702786377 856.2445820433437 L 571.7151702786377 862.0030959752322 C 571.7151702786377 862.5657577887688 571.3180797701929 862.9628482972137 570.7554179566564 862.9628482972137 L 570.7554179566564 862.9628482972137 L 570.7554179566564 862.9628482972137 L 564.9969040247679 862.9628482972137 C 564.4342422112314 862.9628482972137 564.0371517027863 862.5657577887685 564.0371517027863 862.0030959752322 L 564.0371517027863 862.0030959752322 L 564.0371517027863 862.0030959752322 L 564.0371517027863 856.2445820433437 C 564.0371517027863 855.6819202298072 564.4342422112317 855.2848297213623 564.9969040247679 855.2848297213623 L 564.9969040247679 855.2848297213623 L 564.9969040247679 855.2848297213623 Z  M 582.2724458204334 854.3250773993808 L 687.84520123839 854.3250773993808 L 687.84520123839 863.9226006191951 L 582.2724458204334 863.9226006191951 L 582.2724458204334 854.3250773993808 Z  M 51.48000000000002 232 L 367.52 232 C 369.4514924232699 232 371 230.45149242327005 371 228.51999999999998 L 371 228.51999999999998 L 371 228.51999999999998 L 371 202.48000000000002 C 371 200.54850757672995 369.45149242327 199 367.52 199 L 367.52 199 L 367.52 199 L 51.48000000000002 199 C 49.54850757672994 199 48 200.54850757672995 48 202.48000000000002 L 48 202.48000000000002 L 48 202.48000000000002 L 48 228.51999999999998 C 48 230.45149242327014 49.54850757672996 232 51.48000000000002 232 L 51.48000000000002 232 L 51.48000000000002 232 Z  M 51.48000000000002 230 L 367.52 230 C 368.34425733277584 230 369 229.34425733277584 369 228.51999999999998 L 369 228.51999999999998 L 369 228.51999999999998 L 369 202.48000000000002 C 369 201.65574266722416 368.3442573327758 201 367.52 201 L 367.52 201 L 367.52 201 L 51.48000000000002 201 C 50.65574266722403 201 50 201.65574266722402 50 202.48000000000002 L 50 202.48000000000002 L 50 202.48000000000002 L 50 228.51999999999998 C 50 229.34425733277592 50.65574266722407 230 51.48000000000002 230 L 51.48000000000002 230 L 51.48000000000002 230 Z  M 50.700000000000045 272 L 198.29999999999995 272 C 199.80154371479702 272 201 270.80154371479705 201 269.3 L 201 269.3 L 201 269.3 L 201 241.7 C 201 240.19845628520306 199.8015437147969 239 198.29999999999995 239 L 198.29999999999995 239 L 198.29999999999995 239 L 50.700000000000045 239 C 49.198456285203015 239 48 240.19845628520292 48 241.7 L 48 241.7 L 48 241.7 L 48 269.3 C 48 270.80154371479694 49.198456285203044 272 50.700000000000045 272 L 50.700000000000045 272 L 50.700000000000045 272 Z  M 50.700000000000045 270 L 198.29999999999995 270 C 198.7135867600458 270 199 269.71358676004604 199 269.3 L 199 269.3 L 199 269.3 L 199 241.7 C 199 241.28641323995402 198.7135867600458 241 198.29999999999995 241 L 198.29999999999995 241 L 198.29999999999995 241 L 50.700000000000045 241 C 50.286413239954186 241 50 241.28641323995407 50 241.7 L 50 241.7 L 50 241.7 L 50 269.3 C 50 269.71358676004604 50.28641323995413 270 50.700000000000045 270 L 50.700000000000045 270 L 50.700000000000045 270 Z  M 211.79999999999995 272 L 368.20000000000005 272 C 369.75268165270484 272 371 270.75268165270467 371 269.2 L 371 269.2 L 371 269.2 L 371 241.8 C 371 240.24731834729533 369.7526816527047 239 368.20000000000005 239 L 368.20000000000005 239 L 368.20000000000005 239 L 211.79999999999995 239 C 210.24731834729522 239 209 240.24731834729528 209 241.8 L 209 241.8 L 209 241.8 L 209 269.2 C 209 270.7526816527045 210.24731834729533 272 211.79999999999995 272 L 211.79999999999995 272 L 211.79999999999995 272 Z  M 211.79999999999995 270 L 368.20000000000005 270 C 368.6639960267311 270 369 269.66399602673107 369 269.2 L 369 269.2 L 369 269.2 L 369 241.8 C 369 241.33600397326907 368.6639960267311 241 368.20000000000005 241 L 368.20000000000005 241 L 368.20000000000005 241 L 211.79999999999995 241 C 211.33600397326904 241 211 241.3360039732691 211 241.8 L 211 241.8 L 211 241.8 L 211 269.2 C 211 269.6639960267311 211.336003973269 270 211.79999999999995 270 L 211.79999999999995 270 L 211.79999999999995 270 Z  M 54 279 L 366 279 C 368.7418883981654 279 371 281.25811160183446 371 284 L 371 284 L 371 284 L 371 306 C 371 308.74188839816543 368.7418883981653 311 366 311 L 366 311 L 366 311 L 54 311 C 51.25811160183461 311 49 308.7418883981654 49 306 L 49 306 L 49 306 L 49 284 C 49 281.25811160183457 51.258111601834614 279 54 279 L 54 279 L 54 279 Z  M 54 281 L 366 281 C 367.6644306214361 281 369 282.335569378564 369 284 L 369 284 L 369 284 L 369 306 C 369 307.6644306214362 367.66443062143617 309 366 309 L 366 309 L 366 309 L 54 309 C 52.33556937856392 309 51 307.66443062143605 51 306 L 51 306 L 51 306 L 51 284 C 51 282.33556937856395 52.33556937856388 281 54 281 L 54 281 L 54 281 Z  M 60 210 L 160 210 L 160 220 L 60 220 L 60 210 Z  M 60 250 L 140 250 L 140 260 L 60 260 L 60 250 Z  M 220 250 L 310 250 L 310 260 L 220 260 L 220 250 Z  M 60 290 L 170 290 L 170 300 L 60 300 L 60 290 Z  M 180.00000000000003 290 L 259.99999999999994 290 L 259.99999999999994 300 L 180.00000000000003 300 L 180.00000000000003 290 Z  M 54 330 L 196 330 C 198.22227896945276 330 200 331.7777210305473 200 334 L 200 334 L 200 334 L 200 356 C 200 358.2222789694526 198.22227896945267 360 196 360 L 196 360 L 196 360 L 54 360 C 51.77772103054722 360 50 358.2222789694528 50 356 L 50 356 L 50 356 L 50 334 C 50 331.7777210305473 51.77772103054734 330 54 330 L 54 330 L 54 330 Z  M 70 340 L 180 340 L 180 350 L 70 350 L 70 340 Z  M 222 339 L 228 339 C 229.6644306214362 339 231 340.3355693785639 231 342 L 231 342 L 231 342 L 231 348 C 231 349.664430621436 229.664430621436 351 228 351 L 228 351 L 228 351 L 222 351 C 220.33556937856392 351 219 349.6644306214361 219 348 L 219 348 L 219 348 L 219 342 C 219 340.33556937856383 220.3355693785639 339 222 339 L 222 339 L 222 339 Z  M 222 341 L 228 341 C 228.58625730894283 341 229 341.41374269105734 229 342 L 229 342 L 229 342 L 229 348 C 229 348.58625730894283 228.58625730894275 349 228 349 L 228 349 L 228 349 L 222 349 C 221.4137426910573 349 221 348.58625730894283 221 348 L 221 348 L 221 348 L 221 342 C 221 341.4137426910573 221.41374269105722 341 222 341 L 222 341 L 222 341 Z  M 240 340 L 350 340 L 350 350 L 240 350 L 240 340 Z  M 760 250 L 860 250 L 860 260 L 760 260 L 760 250 Z  M 760 270 L 890 270 L 890 280 L 760 280 L 760 270 Z  M 760 305 L 1000 305 L 1000 315 L 760 315 L 760 305 Z  M 760 325 L 985 325 L 985 335 L 760 335 L 760 325 Z  M 760 345 L 990 345 L 990 355 L 760 355 L 760 345 Z  M 760 365 L 995 365 L 995 375 L 760 375 L 760 365 Z  M 760 385 L 970 385 L 970 395 L 760 395 L 760 385 Z  M 760.0000000000002 420 L 880 420 L 880 430 L 760.0000000000002 430 L 760.0000000000002 420 Z  M 740 251 L 740.0000000000002 259.00000000000006 C 740.0000000000002 259.4907953108972 740.3600620886768 259.63993791132344 740.7071067811868 259.2928932188135 L 740.7071067811868 259.2928932188135 L 740.7071067811868 259.2928932188135 L 744.2928932188137 255.7071067811866 C 744.710065315316 255.2899346846842 744.710065315316 254.7100653153159 744.2928932188137 254.29289321881353 L 744.2928932188137 254.29289321881353 L 744.2928932188137 254.29289321881353 L 740.7071067811866 250.70710678118652 C 740.3600620886764 250.36006208867633 740 250.50920468910275 740 251 L 740 251 L 740 251 Z  M 740 421 L 740.0000000000002 429.00000000000006 C 740.0000000000002 429.49079531089734 740.3600620886767 429.63993791132356 740.7071067811868 429.2928932188135 L 740.7071067811868 429.2928932188135 L 740.7071067811868 429.2928932188135 L 744.2928932188137 425.7071067811866 C 744.710065315316 425.2899346846842 744.7100653153159 424.7100653153157 744.2928932188137 424.2928932188135 L 744.2928932188137 424.2928932188135 L 744.2928932188137 424.2928932188135 L 740.7071067811866 420.70710678118655 C 740.3600620886767 420.3600620886767 740 420.50920468910283 740 421 L 740 421 L 740 421 Z  M 741.292795179387 270.7072048206129 L 749.2927951793871 270.70720482061313 C 749.7835904902846 270.70720482061313 749.9327330907105 271.06726690928963 749.5856883982005 271.4143116017997 L 749.5856883982005 271.4143116017997 L 749.5856883982005 271.4143116017997 L 745.9999019605737 275.0000980394266 C 745.5827298640714 275.4172701359289 745.002860494703 275.417270135929 744.5856883982005 275.0000980394266 L 744.5856883982005 275.0000980394266 L 744.5856883982005 275.0000980394266 L 740.9999019605735 271.41431160179945 C 740.6528572680636 271.0672669092894 740.8019998684898 270.7072048206129 741.292795179387 270.7072048206129 L 741.292795179387 270.7072048206129 L 741.292795179387 270.7072048206129 Z  M 420 510 L 520 510 L 520 520 L 420 520 L 420 510 Z  M 420.00000000000006 530 L 550 530 L 550 540 L 420.00000000000006 540 L 420.00000000000006 530 Z  M 420 565 L 660 565 L 660 575 L 420 575 L 420 565 Z  M 420 585 L 645 585 L 645 595 L 420 595 L 420 585 Z  M 420 605 L 650 605 L 650 615 L 420 615 L 420 605 Z  M 420 625 L 655 625 L 655 635 L 420 635 L 420 625 Z  M 420 645 L 630 645 L 630 655 L 420 655 L 420 645 Z  M 420.0000000000002 680 L 540 680 L 540 690 L 420.0000000000002 690 L 420.0000000000002 680 Z  M 400 511 L 400.0000000000002 519 C 400.0000000000002 519.4907953108969 400.36006208867656 519.6399379113236 400.7071067811868 519.2928932188134 L 400.7071067811868 519.2928932188134 L 400.7071067811868 519.2928932188134 L 404.2928932188137 515.7071067811866 C 404.71006531531606 515.2899346846842 404.710065315316 514.7100653153157 404.2928932188137 514.2928932188134 L 404.2928932188137 514.2928932188134 L 404.2928932188137 514.2928932188134 L 400.70710678118655 510.70710678118655 C 400.36006208867656 510.36006208867656 400 510.5092046891028 400 511 L 400 511 L 400 511 Z  M 400 681 L 400.0000000000002 689 C 400.0000000000002 689.4907953108967 400.3600620886764 689.6399379113237 400.7071067811868 689.2928932188134 L 400.7071067811868 689.2928932188134 L 400.7071067811868 689.2928932188134 L 404.2928932188137 685.7071067811866 C 404.710065315316 685.2899346846842 404.710065315316 684.7100653153158 404.2928932188137 684.2928932188134 L 404.2928932188137 684.2928932188134 L 404.2928932188137 684.2928932188134 L 400.70710678118655 680.7071067811866 C 400.36006208867644 680.3600620886765 400 680.5092046891028 400 681 L 400 681 L 400 681 Z  M 401.29279517938704 530.7072048206129 L 409.2927951793871 530.7072048206131 C 409.7835904902847 530.7072048206131 409.9327330907106 531.0672669092896 409.58568839820055 531.4143116017997 L 409.58568839820055 531.4143116017997 L 409.58568839820055 531.4143116017997 L 405.99990196057365 535.0000980394266 C 405.5827298640714 535.4172701359288 405.0028604947028 535.4172701359288 404.58568839820055 535.0000980394266 L 404.58568839820055 535.0000980394266 L 404.58568839820055 535.0000980394266 L 400.9999019605736 531.4143116017995 C 400.65285726806366 531.0672669092896 400.80199986848964 530.7072048206129 401.29279517938704 530.7072048206129 L 401.29279517938704 530.7072048206129 L 401.29279517938704 530.7072048206129 Z " fill-rule="evenodd" fill="rgba(255,255,255, .3)" stroke-width="0" stroke="rgb(0,0,0)"/></svg>
