<?xml version="1.0" standalone="no"?><!-- Generator: Gravit.io --><svg xmlns="http://www.w3.org/2000/svg" xmlns:xlink="http://www.w3.org/1999/xlink" style="isolation:isolate" viewBox="215 114.99999999999994 569.9999999999998 769.9999999999998"><path d=" M 500 290 L 554.9999999999999 345 L 609.9999999999998 399.99999999999994 L 710 399.99999999999994 L 760 309.99999999999994 L 669.9999999999998 119.99999999999994 L 710 399.99999999999994 L 650 319.99999999999994 L 609.9999999999998 399.99999999999994 L 580 489.99999999999994 L 680 489.99999999999994 L 779.9999999999998 359.99999999999994 L 730 489.99999999999994 L 669.9999999999998 539.9999999999998 L 569.9999999999998 569.9999999999998 L 560 620 L 620 629.9999999999998 L 730 530 L 689.9999999999998 640 L 539.9999999999998 689.9999999999998 L 500 879.9999999999998 M 670 120 L 650 319.99999999999994 L 569.9999999999998 350.00000000000006 M 570 570 L 579 489.99999999999994 M 540 690 L 560 620 M 680 490 L 730 489.99999999999994 M 620 630 L 689.9999999999998 640 M 499.9999999999998 290 L 444.9999999999999 345 L 390 399.99999999999994 L 289.9999999999998 399.99999999999994 L 239.99999999999977 309.99999999999994 L 330 119.99999999999994 L 289.9999999999998 399.99999999999994 L 349.9999999999998 319.99999999999994 L 390 399.99999999999994 L 419.9999999999998 489.99999999999994 L 319.9999999999998 489.99999999999994 L 220 359.99999999999994 L 269.9999999999998 489.99999999999994 L 330 539.9999999999998 L 430 569.9999999999998 L 439.9999999999998 620 L 379.9999999999998 629.9999999999998 L 269.9999999999998 530 L 310 640 L 460 689.9999999999998 L 499.9999999999998 879.9999999999998 M 329.9999999999998 120 L 349.9999999999998 319.99999999999994 L 430 350.00000000000006 M 429.9999999999998 570 L 420.9999999999998 489.99999999999994 M 459.9999999999998 690 L 439.9999999999998 620 M 319.9999999999998 490 L 269.9999999999998 489.99999999999994 M 379.9999999999998 630 L 310 640 M 420 490 L 580 489.99999999999994 M 430 570 L 569.9999999999998 569.9999999999998 M 440 620 L 560 620 M 540 690 L 459.9999999999999 689.9999999999998" fill-rule="evenodd" fill="rgb(255,255,255)" fill-opacity="0" stroke-width="10" stroke="rgb(0,0,0)" stroke-linejoin="round" stroke-linecap="round"/></svg>